<mxfile host="app.diagrams.net" agent="Mozilla/5.0 (X11; Linux x86_64) AppleWebKit/537.36 (KHTML, like Gecko) Chrome/131.0.0.0 Safari/537.36" version="26.1.1">
  <diagram name="Страница — 1" id="FU6k8gnQP4EGnjS4FWrm">
    <mxGraphModel dx="782" dy="450" grid="0" gridSize="10" guides="1" tooltips="1" connect="1" arrows="1" fold="1" page="0" pageScale="1" pageWidth="827" pageHeight="1169" math="0" shadow="0">
      <root>
        <mxCell id="0" />
        <mxCell id="1" parent="0" />
        <mxCell id="wzbsA7zudg2y451D5e48-18" value="" style="rounded=0;whiteSpace=wrap;html=1;fillColor=none;dashed=1;dashPattern=1 1;fontFamily=Helvetica;" parent="1" vertex="1">
          <mxGeometry x="420" y="300" width="280" height="240" as="geometry" />
        </mxCell>
        <mxCell id="Oa3G6QQfCwyyYKQKJE6c-25" value="" style="rounded=0;whiteSpace=wrap;html=1;fillColor=none;dashed=1;dashPattern=1 1;fontFamily=Helvetica;" parent="1" vertex="1">
          <mxGeometry x="20" y="300" width="280" height="240" as="geometry" />
        </mxCell>
        <mxCell id="GUh3kZAB57dXg85Tlaq3-7" value="&lt;b style=&quot;&quot;&gt;&lt;font style=&quot;font-size: 14px;&quot;&gt;OS - IPC&lt;/font&gt;&lt;/b&gt;" style="rounded=0;whiteSpace=wrap;html=1;fontFamily=Helvetica;" parent="1" vertex="1">
          <mxGeometry x="320" y="320" width="80" height="40" as="geometry" />
        </mxCell>
        <mxCell id="GUh3kZAB57dXg85Tlaq3-5" value="&lt;font&gt;&lt;b&gt;Thread&lt;/b&gt;&lt;b&gt;&amp;nbsp;&lt;/b&gt;&lt;b&gt;&lt;font&gt;1&lt;/font&gt;&lt;/b&gt;&lt;/font&gt;" style="rounded=0;whiteSpace=wrap;html=1;fillColor=none;fontFamily=Helvetica;fontSize=14;" parent="1" vertex="1">
          <mxGeometry x="40" y="360" width="80" height="40" as="geometry" />
        </mxCell>
        <mxCell id="GUh3kZAB57dXg85Tlaq3-6" value="&lt;b style=&quot;&quot;&gt;&lt;font style=&quot;font-size: 14px;&quot;&gt;Process 1&lt;/font&gt;&lt;/b&gt;" style="text;html=1;align=center;verticalAlign=middle;whiteSpace=wrap;rounded=0;strokeColor=default;fontFamily=Helvetica;" parent="1" vertex="1">
          <mxGeometry x="200" y="320" width="80" height="40" as="geometry" />
        </mxCell>
        <mxCell id="Oa3G6QQfCwyyYKQKJE6c-9" value="&lt;b&gt;Thread&lt;/b&gt;&lt;b&gt;&amp;nbsp;&lt;/b&gt;&lt;b&gt;2&lt;/b&gt;" style="rounded=0;whiteSpace=wrap;html=1;fillColor=none;fontFamily=Helvetica;fontSize=14;" parent="1" vertex="1">
          <mxGeometry x="40" y="440" width="80" height="40" as="geometry" />
        </mxCell>
        <mxCell id="Oa3G6QQfCwyyYKQKJE6c-10" value="&lt;b style=&quot;&quot;&gt;&lt;font style=&quot;font-size: 14px;&quot;&gt;Memory&lt;/font&gt;&lt;/b&gt;&lt;div&gt;&lt;font style=&quot;font-size: 10px;&quot;&gt;(unique)&lt;/font&gt;&lt;/div&gt;" style="rounded=0;whiteSpace=wrap;html=1;fillColor=none;fontFamily=Helvetica;" parent="1" vertex="1">
          <mxGeometry x="200" y="400" width="80" height="40" as="geometry" />
        </mxCell>
        <mxCell id="wzbsA7zudg2y451D5e48-2" value="" style="endArrow=none;html=1;rounded=0;entryX=1;entryY=0.5;entryDx=0;entryDy=0;startArrow=oval;startFill=0;" parent="1" target="GUh3kZAB57dXg85Tlaq3-5" edge="1">
          <mxGeometry width="50" height="50" relative="1" as="geometry">
            <mxPoint x="160" y="420" as="sourcePoint" />
            <mxPoint x="160" y="400" as="targetPoint" />
            <Array as="points">
              <mxPoint x="160" y="380" />
            </Array>
          </mxGeometry>
        </mxCell>
        <mxCell id="wzbsA7zudg2y451D5e48-3" value="" style="endArrow=oval;html=1;rounded=0;exitX=1;exitY=0.5;exitDx=0;exitDy=0;endFill=0;" parent="1" source="Oa3G6QQfCwyyYKQKJE6c-9" edge="1">
          <mxGeometry width="50" height="50" relative="1" as="geometry">
            <mxPoint x="190" y="450" as="sourcePoint" />
            <mxPoint x="160" y="420" as="targetPoint" />
            <Array as="points">
              <mxPoint x="160" y="460" />
            </Array>
          </mxGeometry>
        </mxCell>
        <mxCell id="wzbsA7zudg2y451D5e48-4" value="" style="endArrow=blockThin;html=1;rounded=0;entryX=0;entryY=0.5;entryDx=0;entryDy=0;endFill=0;startArrow=oval;startFill=0;" parent="1" target="Oa3G6QQfCwyyYKQKJE6c-10" edge="1">
          <mxGeometry width="50" height="50" relative="1" as="geometry">
            <mxPoint x="160" y="420" as="sourcePoint" />
            <mxPoint x="180" y="420" as="targetPoint" />
          </mxGeometry>
        </mxCell>
        <mxCell id="wzbsA7zudg2y451D5e48-5" value="" style="endArrow=none;html=1;rounded=0;entryX=0.5;entryY=1;entryDx=0;entryDy=0;exitX=0.5;exitY=0;exitDx=0;exitDy=0;endFill=0;startFill=0;" parent="1" source="Oa3G6QQfCwyyYKQKJE6c-10" target="GUh3kZAB57dXg85Tlaq3-6" edge="1">
          <mxGeometry width="50" height="50" relative="1" as="geometry">
            <mxPoint x="330" y="480" as="sourcePoint" />
            <mxPoint x="380" y="430" as="targetPoint" />
          </mxGeometry>
        </mxCell>
        <mxCell id="wzbsA7zudg2y451D5e48-6" value="&lt;b style=&quot;&quot;&gt;&lt;font style=&quot;font-size: 14px;&quot;&gt;Process 2&lt;/font&gt;&lt;/b&gt;" style="text;html=1;align=center;verticalAlign=middle;whiteSpace=wrap;rounded=0;strokeColor=default;fontFamily=Helvetica;" parent="1" vertex="1">
          <mxGeometry x="440" y="320" width="80" height="40" as="geometry" />
        </mxCell>
        <mxCell id="wzbsA7zudg2y451D5e48-7" value="&lt;b style=&quot;&quot;&gt;&lt;font style=&quot;font-size: 14px;&quot;&gt;Memory&lt;/font&gt;&lt;/b&gt;&lt;div&gt;&lt;font style=&quot;font-size: 10px;&quot;&gt;(unique)&lt;/font&gt;&lt;/div&gt;" style="rounded=0;whiteSpace=wrap;html=1;fillColor=none;fontFamily=Helvetica;" parent="1" vertex="1">
          <mxGeometry x="440" y="400" width="80" height="40" as="geometry" />
        </mxCell>
        <mxCell id="wzbsA7zudg2y451D5e48-8" value="" style="endArrow=none;html=1;rounded=0;entryX=0.5;entryY=1;entryDx=0;entryDy=0;exitX=0.5;exitY=0;exitDx=0;exitDy=0;" parent="1" edge="1">
          <mxGeometry width="50" height="50" relative="1" as="geometry">
            <mxPoint x="479.65999999999997" y="400" as="sourcePoint" />
            <mxPoint x="479.65999999999997" y="360" as="targetPoint" />
          </mxGeometry>
        </mxCell>
        <mxCell id="wzbsA7zudg2y451D5e48-9" value="" style="endArrow=blockThin;html=1;rounded=0;entryX=0;entryY=0.5;entryDx=0;entryDy=0;exitX=1;exitY=0.5;exitDx=0;exitDy=0;startArrow=none;startFill=0;endFill=0;" parent="1" source="GUh3kZAB57dXg85Tlaq3-6" target="GUh3kZAB57dXg85Tlaq3-7" edge="1">
          <mxGeometry width="50" height="50" relative="1" as="geometry">
            <mxPoint x="250" y="410" as="sourcePoint" />
            <mxPoint x="250" y="370" as="targetPoint" />
          </mxGeometry>
        </mxCell>
        <mxCell id="wzbsA7zudg2y451D5e48-10" value="" style="endArrow=none;html=1;rounded=0;entryX=0;entryY=0.5;entryDx=0;entryDy=0;exitX=1;exitY=0.5;exitDx=0;exitDy=0;startArrow=blockThin;startFill=0;endFill=0;" parent="1" edge="1">
          <mxGeometry width="50" height="50" relative="1" as="geometry">
            <mxPoint x="400" y="339.83" as="sourcePoint" />
            <mxPoint x="440" y="339.83" as="targetPoint" />
          </mxGeometry>
        </mxCell>
        <mxCell id="wzbsA7zudg2y451D5e48-11" value="&lt;font&gt;&lt;b&gt;Thread&lt;/b&gt;&lt;b&gt;&amp;nbsp;&lt;/b&gt;&lt;b&gt;&lt;font&gt;1&lt;/font&gt;&lt;/b&gt;&lt;/font&gt;" style="rounded=0;whiteSpace=wrap;html=1;fillColor=none;fontFamily=Helvetica;fontSize=14;" parent="1" vertex="1">
          <mxGeometry x="600" y="360" width="80" height="40" as="geometry" />
        </mxCell>
        <mxCell id="wzbsA7zudg2y451D5e48-12" value="&lt;b&gt;Thread&lt;/b&gt;&lt;b&gt;&amp;nbsp;&lt;/b&gt;&lt;b&gt;2&lt;/b&gt;" style="rounded=0;whiteSpace=wrap;html=1;fillColor=none;fontFamily=Helvetica;fontSize=14;" parent="1" vertex="1">
          <mxGeometry x="600" y="440" width="80" height="40" as="geometry" />
        </mxCell>
        <mxCell id="wzbsA7zudg2y451D5e48-15" value="" style="endArrow=none;html=1;rounded=0;entryX=0;entryY=0.5;entryDx=0;entryDy=0;startArrow=oval;startFill=0;" parent="1" target="wzbsA7zudg2y451D5e48-11" edge="1">
          <mxGeometry width="50" height="50" relative="1" as="geometry">
            <mxPoint x="560" y="420" as="sourcePoint" />
            <mxPoint x="520" y="340" as="targetPoint" />
            <Array as="points">
              <mxPoint x="560" y="380" />
            </Array>
          </mxGeometry>
        </mxCell>
        <mxCell id="wzbsA7zudg2y451D5e48-16" value="" style="endArrow=oval;html=1;rounded=0;endFill=0;exitX=0;exitY=0.5;exitDx=0;exitDy=0;" parent="1" source="wzbsA7zudg2y451D5e48-12" edge="1">
          <mxGeometry width="50" height="50" relative="1" as="geometry">
            <mxPoint x="570" y="460" as="sourcePoint" />
            <mxPoint x="560" y="420" as="targetPoint" />
            <Array as="points">
              <mxPoint x="560" y="460" />
            </Array>
          </mxGeometry>
        </mxCell>
        <mxCell id="wzbsA7zudg2y451D5e48-17" value="" style="endArrow=blockThin;html=1;rounded=0;endFill=0;startArrow=oval;startFill=0;entryX=1;entryY=0.5;entryDx=0;entryDy=0;" parent="1" target="wzbsA7zudg2y451D5e48-7" edge="1">
          <mxGeometry width="50" height="50" relative="1" as="geometry">
            <mxPoint x="560" y="419.8" as="sourcePoint" />
            <mxPoint x="600" y="419.8" as="targetPoint" />
          </mxGeometry>
        </mxCell>
        <mxCell id="wzbsA7zudg2y451D5e48-19" value="&lt;span style=&quot;font-size: 14px;&quot;&gt;&lt;b&gt;Mapping&lt;/b&gt;&lt;/span&gt;" style="rounded=0;whiteSpace=wrap;html=1;fillColor=none;fontFamily=Helvetica;" parent="1" vertex="1">
          <mxGeometry x="200" y="480" width="80" height="40" as="geometry" />
        </mxCell>
        <mxCell id="wzbsA7zudg2y451D5e48-23" value="" style="endArrow=none;html=1;rounded=0;entryX=0.5;entryY=1;entryDx=0;entryDy=0;exitX=0.5;exitY=0;exitDx=0;exitDy=0;" parent="1" edge="1">
          <mxGeometry width="50" height="50" relative="1" as="geometry">
            <mxPoint x="239.8" y="480" as="sourcePoint" />
            <mxPoint x="239.8" y="440" as="targetPoint" />
          </mxGeometry>
        </mxCell>
        <mxCell id="wzbsA7zudg2y451D5e48-24" value="&lt;span style=&quot;font-size: 14px;&quot;&gt;&lt;b&gt;Mapping&lt;/b&gt;&lt;/span&gt;" style="rounded=0;whiteSpace=wrap;html=1;fillColor=none;fontFamily=Helvetica;" parent="1" vertex="1">
          <mxGeometry x="440" y="480" width="80" height="40" as="geometry" />
        </mxCell>
        <mxCell id="wzbsA7zudg2y451D5e48-25" value="" style="endArrow=none;html=1;rounded=0;entryX=0.5;entryY=1;entryDx=0;entryDy=0;exitX=0.5;exitY=0;exitDx=0;exitDy=0;" parent="1" edge="1">
          <mxGeometry width="50" height="50" relative="1" as="geometry">
            <mxPoint x="479.8" y="480" as="sourcePoint" />
            <mxPoint x="479.8" y="440" as="targetPoint" />
          </mxGeometry>
        </mxCell>
        <mxCell id="wzbsA7zudg2y451D5e48-26" value="&lt;font style=&quot;font-size: 14px;&quot;&gt;&lt;b style=&quot;&quot;&gt;Memory&lt;/b&gt;&lt;/font&gt;&lt;div&gt;&lt;font style=&quot;font-size: 10px;&quot;&gt;(shared)&lt;/font&gt;&lt;/div&gt;" style="rounded=0;whiteSpace=wrap;html=1;fontFamily=Helvetica;" parent="1" vertex="1">
          <mxGeometry x="320" y="400" width="80" height="40" as="geometry" />
        </mxCell>
        <mxCell id="wzbsA7zudg2y451D5e48-27" value="" style="endArrow=blockThin;html=1;rounded=0;entryX=0.5;entryY=1;entryDx=0;entryDy=0;endFill=0;startArrow=oval;startFill=0;" parent="1" target="wzbsA7zudg2y451D5e48-26" edge="1">
          <mxGeometry width="50" height="50" relative="1" as="geometry">
            <mxPoint x="360" y="500" as="sourcePoint" />
            <mxPoint x="370" y="480" as="targetPoint" />
          </mxGeometry>
        </mxCell>
        <mxCell id="wzbsA7zudg2y451D5e48-28" value="" style="endArrow=oval;html=1;rounded=0;endFill=0;exitX=1;exitY=0.5;exitDx=0;exitDy=0;" parent="1" source="wzbsA7zudg2y451D5e48-19" edge="1">
          <mxGeometry width="50" height="50" relative="1" as="geometry">
            <mxPoint x="310" y="580" as="sourcePoint" />
            <mxPoint x="360" y="500" as="targetPoint" />
          </mxGeometry>
        </mxCell>
        <mxCell id="wzbsA7zudg2y451D5e48-29" value="" style="endArrow=none;html=1;rounded=0;startArrow=oval;startFill=0;entryX=0;entryY=0.5;entryDx=0;entryDy=0;" parent="1" target="wzbsA7zudg2y451D5e48-24" edge="1">
          <mxGeometry width="50" height="50" relative="1" as="geometry">
            <mxPoint x="360" y="500" as="sourcePoint" />
            <mxPoint x="390" y="520" as="targetPoint" />
          </mxGeometry>
        </mxCell>
        <mxCell id="wzbsA7zudg2y451D5e48-30" value="" style="endArrow=none;html=1;rounded=0;entryX=0.5;entryY=1;entryDx=0;entryDy=0;exitX=0.5;exitY=0;exitDx=0;exitDy=0;endFill=0;startFill=0;" parent="1" edge="1">
          <mxGeometry width="50" height="50" relative="1" as="geometry">
            <mxPoint x="359.76" y="400" as="sourcePoint" />
            <mxPoint x="359.76" y="360" as="targetPoint" />
          </mxGeometry>
        </mxCell>
      </root>
    </mxGraphModel>
  </diagram>
</mxfile>
